<svg height="512" viewBox="0 0 50 60" width="512" xmlns="http://www.w3.org/2000/svg"><g id="Page-1" fill="none" fill-rule="evenodd"><g id="055---Lighter" fill-rule="nonzero"><circle id="Oval" cx="19" cy="31" fill="#3f51b5" r="2"/><path id="Shape" d="m19 2v27c-1.1032019.0032948-1.9967052.8967981-2 2h-11c-2.76142375 0-5-2.2385763-5-5v-20c0-2.76142375 2.23857625-5 5-5h12c.5522847 0 1 .44771525 1 1z" fill="#02a9f4"/><path id="Shape" d="m18 1h-3c.5522847 0 1 .44771525 1 1v27c-1.1032019.0032948-1.9967052.8967981-2 2h3c.0032948-1.1032019.8967981-1.9967052 2-2v-27c0-.55228475-.4477153-1-1-1z" fill="#0377bc"/><path id="Shape" d="m49 33v24c-.0032948 1.1032019-.8967981 1.9967052-2 2h-26c-1.1032019-.0032948-1.9967052-.8967981-2-2v-24c1.1032019-.0032948 1.9967052-.8967981 2-2h26c1.1032019.0032948 1.9967052.8967981 2 2z" fill="#02a9f4"/><path id="Shape" d="m47 31h-3c1.1032019.0032948 1.9967052.8967981 2 2v24c-.0032948 1.1032019-.8967981 1.9967052-2 2h3c1.1032019-.0032948 1.9967052-.8967981 2-2v-24c-.0032948-1.1032019-.8967981-1.9967052-2-2z" fill="#0377bc"/><path id="Shape" d="m42 18v13h-14v-13c0-.5522847.4477153-1 1-1h12c.5522847 0 1 .4477153 1 1z" fill="#9e9e9e"/><path id="Shape" d="m41 17h-3c.5522847 0 1 .4477153 1 1v13h3v-13c0-.5522847-.4477153-1-1-1z" fill="#707070"/><path id="Shape" d="m48 23c.0022588 1.4299033-.7600686 2.751921-1.9987692 3.4662384-1.2387006.7143173-2.7647636.711938-4.0012308-.0062384v-6.92c1.2364672-.7181764 2.7625302-.7205557 4.0012308-.0062384 1.2387006.7143174 2.001028 2.0363351 1.9987692 3.4662384z" fill="#7f8e94"/><path id="Shape" d="m42.5 19.3c1.5103583.6088347 2.4994995 2.0740462 2.4994995 3.7025s-.9891412 3.0936653-2.4994995 3.7025c1.6715651.6834198 3.5937438.162069 4.6909005-1.2723088 1.0971567-1.4343777 1.0971567-3.4260047 0-4.8603824-1.0971567-1.4343778-3.0193354-1.9557286-4.6909005-1.2723088z" fill="#545c60"/><path id="Shape" d="m46 26.46v4.54h-4v-4.54c1.2361501.7199379 2.7638499.7199379 4 0z" fill="#607d8b"/><path id="Shape" d="m24.27 25c-.1762535.3038396-.2693767.6487402-.27 1v5h-3c-.0032948-1.1032019-.8967981-1.9967052-2-2v-4z" fill="#607d8b"/><path id="Shape" d="m28 26v5h-4v-5c0-1.1045695.8954305-2 2-2 1.1011688.0081672 1.9918328.8988312 2 2z" fill="#7f8e94"/><path id="Shape" d="m37 17s2-2.066 2-7.233c-.1539502-3.0663571-1.2839264-6.0032441-3.225-8.382-.1839729-.24235521-.4707269-.38469396-.775-.38469396s-.5910271.14233875-.775.38469396c-1.9410736 2.3787559-3.0710498 5.3156429-3.225 8.382 0 5.167 2 7.233 2 7.233z" fill="#ffdc00"/><path id="Shape" d="m35.775 1.385c-.1839729-.24235521-.4707269-.38469396-.775-.38469396s-.5910271.14233875-.775.38469396c-.215.278-.466.63-.725 1.016 1.5318792 2.15999305 2.4006717 4.71980314 2.5 7.366 0 5.167-2 7.233-2 7.233h3s2-2.066 2-7.233c-.1539502-3.0663571-1.2839264-6.0032441-3.225-8.382z" fill="#fec108"/><path id="Shape" d="m37 17c.7371068-.8415003 1.0983576-1.9476504 1-3.062-.1320192-1.7338506-.9802835-3.3343561-2.341-4.417-.3761806-.33313712-.9418194-.33313712-1.318 0-1.3607165 1.0826439-2.2089808 2.6831494-2.341 4.417-.0975319 1.114255.2636156 2.2200886 1 3.062z" fill="#ff9801"/><path id="Shape" d="m5 15c-.55228475 0-1-.4477153-1-1v-8c0-1.1045695.8954305-2 2-2h4c.5522847 0 1 .44771525 1 1s-.4477153 1-1 1h-4v8c0 .5522847-.44771525 1-1 1z" fill="#f5f5f5"/><circle id="Oval" cx="5" cy="18" fill="#f5f5f5" r="1"/><path id="Shape" d="m23 39c-.4043959-.0000863-.7689341-.2437275-.923678-.6173454-.1547439-.373618-.0692299-.8036603.216678-1.0896546l3-3c.3923789-.3789722 1.0160848-.3735524 1.4018186.0121814s.3911536 1.0094397.0121814 1.4018186l-3 3c-.1874927.1875494-.4418052.2929434-.707.293z" fill="#f5f5f5"/><path id="Shape" d="m29 45c-.4043959-.0000863-.7689341-.2437275-.923678-.6173454-.1547439-.373618-.0692299-.8036603.216678-1.0896546l3-3c.3923789-.3789722 1.0160848-.3735524 1.4018186.0121814s.3911536 1.0094397.0121814 1.4018186l-3 3c-.1874927.1875494-.4418052.2929434-.707.293z" fill="#f5f5f5"/><path id="Shape" d="m23 45c-.4043959-.0000863-.7689341-.2437275-.923678-.6173454-.1547439-.373618-.0692299-.8036603.216678-1.0896546l9-9c.3923789-.3789722 1.0160848-.3735524 1.4018186.0121814s.3911536 1.0094397.0121814 1.4018186l-9 9c-.1874927.1875494-.4418052.2929434-.707.293z" fill="#f5f5f5"/><g fill="#000"><path id="Shape" d="m21 60h26c1.6568542 0 3-1.3431458 3-3v-24c0-1.6568542-1.3431458-3-3-3v-3.026c1.7214122-1.2868972 2.4237276-3.5325111 1.7422971-5.5708969s-2.5930381-3.4101678-4.7422971-3.4031031c-.3363742.0033894-.6714938.0415931-1 .114v-.114c0-1.1045695-.8954305-2-2-2h-2.217c.8586135-1.9626881 1.2741343-4.0904824 1.217-6.232-.1498037-3.29100135-1.3544951-6.44647924-3.436-9-.386045-.46541662-.9593155-.73472285-1.564-.73472285s-1.177955.26930623-1.564.73472285c-2.0815049 2.55352076-3.2861963 5.70899865-3.436 9-.0571343 2.1415176.3583865 4.2693119 1.217 6.232h-2.217c-1.1045695 0-2 .8954305-2 2v5.184c-1.1385495-.4247753-2.421159-.0997413-3.22.816h-3.78v-22c0-1.1045695-.8954305-2-2-2h-12c-3.31233757.00330738-5.99669262 2.68766243-6 6v20c.00330738 3.3123376 2.68766243 5.9966926 6 6h10.184c.3025307.846935.969065 1.5134693 1.816 1.816v23.184c0 1.6568542 1.3431458 3 3 3zm-2-30c.5522847 0 1 .4477153 1 1s-.4477153 1-1 1-1-.4477153-1-1 .4477153-1 1-1zm29 3v24c0 .5522847-.4477153 1-1 1h-26c-.5522847 0-1-.4477153-1-1v-23.184c.846935-.3025307 1.5134693-.969065 1.816-1.816h25.184c.5522847 0 1 .4477153 1 1zm-3-3h-2v-2.114c.3285062.0724069.6636258.1106106 1 .114.3358458.0003359.6708711-.0331667 1-.1zm-1-10c1.6568542 0 3 1.3431458 3 3s-1.3431458 3-3 3c-.3424707-.0076162-.6809438-.0753108-1-.2v-5.6c.3190562-.1246892.6575293-.1923838 1-.2zm-10.505-4c-.027-.041-.056-.086-.087-.136-.2913317-.5990177-.4314178-1.2603064-.408-1.926.1368534-1.4442165.8597097-2.7692122 2-3.666 1.1409314.8962456 1.8639496 2.2215379 2 3.666.0234248.6645102-.1159542 1.3246724-.406 1.923-.032.051-.061.1-.089.139zm1.49-14c1.8073062 2.20176923 2.8636891 4.92348801 3.015 7.768 0 .317-.01.62-.025.912-.4620856-.70908204-1.0192823-1.35140601-1.656-1.909-.7546922-.66212117-1.8833078-.66212117-2.638 0-.6369873.55732554-1.1942182 1.19968892-1.656 1.909-.015-.292-.025-.594-.025-.912.1564971-2.83813736 1.2006541-5.55539416 2.985-7.768zm-5.985 16h12v12h-12zm-3 7c.5522847 0 1 .4477153 1 1v4h-2v-4c0-.5522847.4477153-1 1-1zm-3 1v4h-1.184c-.3025307-.846935-.969065-1.5134693-1.816-1.816v-2.184zm-21 0v-20c0-2.209139 1.790861-4 4-4h12v26.184c-.846935.3025307-1.5134693.969065-1.816 1.816h-10.184c-2.209139 0-4-1.790861-4-4z"/><circle id="Oval" cx="32" cy="21" r="1"/><circle id="Oval" cx="38" cy="21" r="1"/><circle id="Oval" cx="32" cy="27" r="1"/><circle id="Oval" cx="35" cy="24" r="1"/><circle id="Oval" cx="38" cy="27" r="1"/></g></g></g></svg>