<?xml version="1.0" encoding="utf-8"?><svg xml:space="preserve" viewBox="0 0 100 100" y="0" x="0" xmlns="http://www.w3.org/2000/svg" id="圖層_1" version="1.1" width="47px" height="47px" xmlns:xlink="http://www.w3.org/1999/xlink" style="width:100%;height:100%;background-size:initial;background-repeat-y:initial;background-repeat-x:initial;background-position-y:initial;background-position-x:initial;background-origin:initial;background-image:initial;background-color:rgb(255, 255, 255);background-clip:initial;background-attachment:initial;animation-play-state:paused" ><g class="ldl-scale" style="transform-origin:50% 50%;transform:rotate(0deg) scale(0.8, 0.8);animation-play-state:paused" ><path d="M61.98 25.545l-7.996-4.617L38.411 47.9 28.239 65.52l-5.4 9.352 6.424-1.894 1.573 6.51 6.424-1.893 1.573 6.51 5.399-9.352 10.173-17.619 15.572-26.972z" stroke-miterlimit="10" stroke-linejoin="round" stroke-linecap="round" stroke-width="2" stroke="#333" fill="#abbd81" style="stroke:rgb(51, 51, 51);fill:rgb(171, 189, 129);animation-play-state:paused" ></path>
<path d="M29.263 72.978l28.719-49.742" stroke-miterlimit="10" stroke-linejoin="round" stroke-linecap="round" stroke-width="2" stroke="#333" fill="#e0e0e0" style="stroke:rgb(51, 51, 51);fill:rgb(224, 224, 224);animation-play-state:paused" ></path>
<path d="M37.26 77.595l28.719-49.742" stroke-miterlimit="10" stroke-linejoin="round" stroke-linecap="round" stroke-width="2" stroke="#333" fill="#e0e0e0" style="stroke:rgb(51, 51, 51);fill:rgb(224, 224, 224);animation-play-state:paused" ></path>
<path d="M30.836 79.488L61.98 25.545" stroke-miterlimit="10" stroke-linejoin="round" stroke-linecap="round" stroke-width="2" stroke="#333" fill="#e0e0e0" style="stroke:rgb(51, 51, 51);fill:rgb(224, 224, 224);animation-play-state:paused" ></path>
<path d="M56.8 16.048l15.993 9.234-2.817 4.88-15.994-9.235z" stroke-miterlimit="10" stroke-linejoin="round" stroke-linecap="round" stroke-width="1.99996" stroke="#333" fill="#e0e0e0" style="stroke:rgb(51, 51, 51);fill:rgb(224, 224, 224);animation-play-state:paused" ></path>
<path stroke-miterlimit="10" stroke-linejoin="round" stroke-linecap="round" stroke-width="2" stroke="#333" fill="#e15b64" d="M72.794 25.282l-15.993-9.234 3.873-6.709a3.678 3.678 0 0 1 5.024-1.346l9.623 5.556a3.678 3.678 0 0 1 1.346 5.024l-3.873 6.709z" style="stroke:rgb(51, 51, 51);fill:rgb(225, 91, 100);animation-play-state:paused" ></path>
<path d="M37.26 77.595l-6.424 1.893-1.573-6.51-6.424 1.894.212 7.712.273 9.916 8.723-4.722 6.786-3.673z" stroke-miterlimit="10" stroke-linejoin="round" stroke-linecap="round" stroke-width="2" stroke="#333" fill="#f8b26a" style="stroke:rgb(51, 51, 51);fill:rgb(248, 178, 106);animation-play-state:paused" ></path>
<path d="M23.117 84.971l.207 7.529 6.623-3.585z" stroke-miterlimit="10" stroke-linejoin="round" stroke-linecap="round" stroke-width="2" stroke="#333" fill="#333" style="stroke:rgb(51, 51, 51);fill:rgb(51, 51, 51);animation-play-state:paused" ></path>
<metadata xmlns:d="https://loading.io/stock/" style="animation-play-state:paused" ><d:name style="animation-play-state:paused" >pencil</d:name>
<d:tags style="animation-play-state:paused" >pencil,write,draw,sketch,edit,trace,compose</d:tags>
<d:license style="animation-play-state:paused" >by</d:license>
<d:slug style="animation-play-state:paused" >aeb407</d:slug></metadata></g><!-- generated by https://loading.io/ --></svg>